<svg width="2080" height="455" viewBox="0 0 2080 455" fill="none" xmlns="http://www.w3.org/2000/svg">
<path d="M925.268 2.81906C1075.2 -4.38629 1253.78 3.03538 1424.04 15.8562C1594.65 28.7039 1758.56 47.1063 1879.7 62.2747C1940.3 69.8635 1990.29 76.6539 2025.16 81.5526C2042.6 84.0022 2056.27 85.9794 2065.6 87.3481C2070.26 88.0324 2073.84 88.564 2076.27 88.9271C2077.48 89.1086 2078.41 89.2482 2079.04 89.343C2079.35 89.3904 2079.59 89.4265 2079.76 89.4514C2079.84 89.4639 2079.9 89.474 2079.95 89.4807C2079.97 89.4841 2079.99 89.4868 2080 89.4885C2080.01 89.4919 2079.98 89.7603 2070.95 149.301C2062.02 208.159 2061.88 209.095 2061.87 209.109C2061.86 209.108 2061.85 209.106 2061.84 209.104C2061.8 209.099 2061.75 209.091 2061.68 209.08C2061.55 209.059 2061.33 209.027 2061.04 208.984C2060.47 208.897 2059.59 208.766 2058.43 208.592C2056.11 208.245 2052.64 207.73 2048.09 207.062C2038.99 205.727 2025.57 203.784 2008.39 201.371C1974.03 196.544 1924.64 189.835 1864.71 182.331C1744.78 167.315 1582.97 149.157 1414.98 136.507C1246.63 123.829 1073.73 116.814 931.057 123.671C859.645 127.102 797.509 133.941 748.087 144.687C696.865 155.824 666.877 169.621 652.768 181.734C646.232 187.345 643.147 193.047 641.497 226.85C640.133 254.79 640.513 311.194 599.094 357.607C523.106 442.756 435.887 452.891 344.162 454.767C272.594 456.23 215.09 452.013 144.261 406.805C111.961 386.19 86.1639 363.928 64.8471 336.208C43.816 308.859 29.1226 278.738 16.1089 245.226C-0.0763682 203.547 1.97644 167.556 3.40526 142.31C4.85977 116.61 5.46373 102.847 0 86.0581L114.845 48.5609C128.316 89.9567 125.333 125.67 124.004 149.158C122.649 173.1 122.721 186.01 128.684 201.366C139.519 229.268 149.245 247.687 160.541 262.376C171.552 276.695 185.991 289.973 209.172 304.769C250.714 331.284 280.048 335.061 341.698 333.801C425.432 332.089 468.067 322.882 509.037 276.973C517.243 267.777 519.054 257.708 520.848 220.942C522.357 190.039 524.157 132.8 574.158 89.8713C611.585 57.7377 665.796 38.7708 722.463 26.4492C780.932 13.736 850.377 6.41807 925.268 2.81906Z" fill="#30458C"/>
</svg>
