<svg width="2088" height="1126" viewBox="0 0 2088 1126" fill="none" xmlns="http://www.w3.org/2000/svg">
<g filter="url(#filter0_d_1076_3737)">
<path d="M695.418 36C879.583 35.9957 1068.12 38.0236 1218.26 44.1685C1293.22 47.2366 1359.52 51.3653 1411.27 56.9059C1437.09 59.6702 1460.23 62.883 1479.47 66.7073C1496.9 70.17 1517.33 75.2485 1533.5 84.237C1585.41 113.095 1625.64 150.875 1652.76 198.634C1679.71 246.089 1691.62 299.677 1692.88 357.158C1694.76 443.124 1645.84 498.345 1603.73 537.946C1593.15 547.895 1582.12 557.65 1572.08 566.592C1561.76 575.785 1552.21 584.365 1543.18 593.099C1525.08 610.605 1511.11 626.838 1501.32 644.143C1478.13 685.116 1467.87 720.489 1467.49 752.682C1467.12 784.355 1476.24 817.828 1499.91 855.54C1533.49 909.054 1561.79 940.698 1600.85 958.715C1650.79 981.755 1702.34 998.134 1769.86 1004.4C1813.4 1008.43 1849.7 993.774 1890.8 967.526C1912.41 953.724 1931.74 939.195 1955.88 922.269C1978.65 906.309 2004.37 889.228 2032.7 875.929L2084 985.425C2065.49 994.115 2046.73 1006.23 2025.2 1021.32C2005.05 1035.45 1980.28 1053.84 1955.79 1069.48C1904.69 1102.11 1840.8 1132.43 1758.71 1124.82C1675.67 1117.11 1610.84 1096.48 1550.28 1068.55C1478.83 1035.59 1434.98 979.454 1397.59 919.861C1363.59 865.668 1345.99 809.68 1346.68 751.259C1347.36 693.361 1365.93 638.008 1396.18 584.547C1414.1 552.877 1437.27 527.373 1459.22 506.138C1470.21 495.502 1481.42 485.459 1491.76 476.25C1502.38 466.79 1511.91 458.361 1520.99 449.815C1557.54 415.437 1572.78 391.701 1572.08 359.806C1571.15 317.361 1562.56 284.521 1547.72 258.398C1533.06 232.58 1510.22 209.632 1474.84 189.962C1476.38 190.82 1472.07 188.531 1455.94 185.326C1441.63 182.482 1422.43 179.725 1398.42 177.155C1350.52 172.027 1287.25 168.029 1213.32 165.004C1065.66 158.96 879.069 156.931 695.421 156.936C511.923 156.94 331.998 158.973 197.904 161.006C130.87 162.022 75.3184 163.037 36.5363 163.799C17.1459 164.18 32.9036 164.497 22.5618 164.719C17.391 164.829 13.4341 164.917 10.7734 164.976C9.44325 165.006 8.4369 165.028 7.76517 165.044C7.4293 165.051 7.17678 165.057 7.00944 165.061C6.92582 165.063 6.86326 165.064 6.82222 165.065C6.80176 165.065 6.78665 165.066 6.77639 165.066C6.76708 165.057 6.74591 164.301 5.37318 104.615C3.98285 44.163 3.98998 44.1629 4.00215 44.1626C4.01336 44.1624 4.03073 44.1622 4.05286 44.1617C4.0977 44.1606 4.16429 44.1588 4.25178 44.1568C4.42672 44.1528 4.68654 44.147 5.02993 44.1392C5.71718 44.1236 6.73967 44.0999 8.08598 44.0699C10.7786 44.01 14.769 43.9229 19.9738 43.8113C30.3836 43.588 14.699 43.2693 34.1667 42.887C73.1016 42.1224 128.836 41.1031 196.075 40.0838C330.528 38.0454 511.104 36.0043 695.418 36Z" fill="#30458C"/>
</g>
<defs>
<filter id="filter0_d_1076_3737" x="0" y="0" width="2088" height="1126" filterUnits="userSpaceOnUse" color-interpolation-filters="sRGB">
<feFlood flood-opacity="0" result="BackgroundImageFix"/>
<feColorMatrix in="SourceAlpha" type="matrix" values="0 0 0 0 0 0 0 0 0 0 0 0 0 0 0 0 0 0 127 0" result="hardAlpha"/>
<feOffset dy="-32"/>
<feGaussianBlur stdDeviation="2"/>
<feComposite in2="hardAlpha" operator="out"/>
<feColorMatrix type="matrix" values="0 0 0 0 0 0 0 0 0 0 0 0 0 0 0 0 0 0 0.25 0"/>
<feBlend mode="normal" in2="BackgroundImageFix" result="effect1_dropShadow_1076_3737"/>
<feBlend mode="normal" in="SourceGraphic" in2="effect1_dropShadow_1076_3737" result="shape"/>
</filter>
</defs>
</svg>
