<svg width="2088" height="491" viewBox="0 0 2088 491" fill="none" xmlns="http://www.w3.org/2000/svg">
<g filter="url(#filter0_d_1076_3738)">
<path d="M929.268 38.8191C1079.2 31.6137 1257.78 39.0354 1428.04 51.8562C1598.65 64.7039 1762.56 83.1063 1883.7 98.2747C1944.3 105.864 1994.29 112.654 2029.16 117.553C2046.6 120.002 2060.27 121.979 2069.6 123.348C2074.26 124.032 2077.84 124.564 2080.27 124.927C2081.48 125.109 2082.41 125.248 2083.04 125.343C2083.35 125.39 2083.59 125.426 2083.76 125.451C2083.84 125.464 2083.9 125.474 2083.95 125.481C2083.97 125.484 2083.99 125.487 2084 125.489C2084.01 125.492 2083.98 125.76 2074.95 185.301C2066.02 244.159 2065.88 245.095 2065.87 245.109C2065.86 245.108 2065.85 245.106 2065.84 245.104C2065.8 245.099 2065.75 245.091 2065.68 245.08C2065.55 245.059 2065.33 245.027 2065.04 244.984C2064.47 244.897 2063.59 244.766 2062.43 244.592C2060.11 244.245 2056.64 243.73 2052.09 243.062C2042.99 241.727 2029.57 239.784 2012.39 237.371C1978.03 232.544 1928.64 225.835 1868.71 218.331C1748.78 203.315 1586.97 185.157 1418.98 172.507C1250.63 159.829 1077.73 152.814 935.057 159.671C863.645 163.102 801.509 169.941 752.087 180.687C700.865 191.824 670.877 205.621 656.768 217.734C650.232 223.345 647.147 229.047 645.497 262.85C644.133 290.79 644.513 347.194 603.094 393.607C527.106 478.756 439.887 488.891 348.162 490.767C276.594 492.23 219.09 488.013 148.261 442.805C115.961 422.19 90.1639 399.928 68.8471 372.208C47.816 344.859 33.1226 314.738 20.1089 281.226C3.92363 239.547 5.97644 203.556 7.40526 178.31C8.85977 152.61 9.46373 138.847 4 122.058L118.845 84.5609C132.316 125.957 129.333 161.67 128.004 185.158C126.649 209.1 126.721 222.01 132.684 237.366C143.519 265.268 153.245 283.687 164.541 298.376C175.552 312.695 189.991 325.973 213.172 340.769C254.714 367.284 284.048 371.061 345.698 369.801C429.432 368.089 472.067 358.882 513.037 312.973C521.243 303.777 523.054 293.708 524.848 256.942C526.357 226.039 528.157 168.8 578.158 125.871C615.585 93.7377 669.796 74.7708 726.463 62.4492C784.932 49.736 854.377 42.4181 929.268 38.8191Z" fill="#30458C"/>
</g>
<defs>
<filter id="filter0_d_1076_3738" x="0" y="0" width="2088" height="491" filterUnits="userSpaceOnUse" color-interpolation-filters="sRGB">
<feFlood flood-opacity="0" result="BackgroundImageFix"/>
<feColorMatrix in="SourceAlpha" type="matrix" values="0 0 0 0 0 0 0 0 0 0 0 0 0 0 0 0 0 0 127 0" result="hardAlpha"/>
<feOffset dy="-32"/>
<feGaussianBlur stdDeviation="2"/>
<feComposite in2="hardAlpha" operator="out"/>
<feColorMatrix type="matrix" values="0 0 0 0 0 0 0 0 0 0 0 0 0 0 0 0 0 0 0.25 0"/>
<feBlend mode="normal" in2="BackgroundImageFix" result="effect1_dropShadow_1076_3738"/>
<feBlend mode="normal" in="SourceGraphic" in2="effect1_dropShadow_1076_3738" result="shape"/>
</filter>
</defs>
</svg>
