<svg width="91" height="24" viewBox="0 0 91 24" fill="none" xmlns="http://www.w3.org/2000/svg">
<path d="M40.5713 10.5605L51.9286 0H40.7796L35.0039 5.37063L40.5713 10.5605Z" fill="#30458C"/>
<path d="M40.5713 13.4395L51.9286 24H40.7796L35.0039 18.6293L40.5713 13.4395Z" fill="#30458C"/>
<path d="M27.937 12.7422L15.8438 23.9998H26.9926L39.0999 12.7422H27.937Z" fill="#30458C"/>
<path d="M39.0999 11.2577L26.9926 0H15.8438L27.937 11.2577H39.0999Z" fill="#30458C"/>
<path d="M58.3688 13.8013C57.522 16.0476 55.5642 17.5969 52.704 17.5969C48.4001 17.5969 46.3867 14.5113 46.3867 11.8518C46.3867 9.37307 48.3306 6.26172 52.607 6.26172C55.4947 6.26172 57.6052 7.83676 58.3688 10.1348H55.2727C54.7311 9.15361 53.7731 8.67594 52.5652 8.67594C50.3716 8.67594 49.1359 10.1735 49.1359 11.8776C49.1359 13.698 50.4547 15.1568 52.5652 15.1568C53.0373 15.1568 54.5091 15.0794 55.2727 13.7754H58.3688V13.8013Z" fill="#30458C"/>
<path d="M71.6973 11.9549C71.6973 15.0534 69.1147 17.5967 65.6298 17.5967C62.1448 17.5967 59.5625 15.0405 59.5625 11.9549C59.5625 8.8436 62.117 6.27446 65.6298 6.27446C69.1425 6.26156 71.6973 8.8436 71.6973 11.9549ZM62.2975 11.9549C62.2975 13.6849 63.6027 15.1825 65.6298 15.1825C67.6568 15.1825 68.9481 13.6849 68.9481 11.9549C68.9481 10.225 67.6707 8.68868 65.6298 8.68868C63.5749 8.68868 62.2975 10.225 62.2975 11.9549Z" fill="#30458C"/>
<path d="M73.5742 6.41602H76.1012V7.74574H76.1429C76.9482 6.68711 78.2534 6.41602 79.1141 6.41602C80.2665 6.41602 81.6688 6.88076 82.4602 8.06851C83.1267 7.22936 84.2514 6.41602 86.1118 6.41602C88.9024 6.41602 90.7768 8.18471 90.7768 11.1799V17.4026H88.0279V11.7608C88.0279 10.8055 87.9027 8.84311 85.7785 8.84311C83.668 8.84311 83.5431 10.8055 83.5431 11.7608V17.4155H80.8079V11.7608C80.8079 10.8055 80.683 8.84311 78.5588 8.84311C76.4483 8.84311 76.3234 10.8055 76.3234 11.7608V17.4155H73.5742V6.41602Z" fill="#30458C"/>
<path d="M15.0368 2.14328H11.6213C11.3298 2.14328 11.0938 1.92381 11.0938 1.65269C11.0938 1.38158 11.3298 1.16211 11.6213 1.16211H15.0368C15.3284 1.16211 15.5645 1.38158 15.5645 1.65269C15.5645 1.92381 15.3284 2.14328 15.0368 2.14328Z" fill="#30458C"/>
<path d="M17.8253 4.738H8.82837C8.53681 4.738 8.30078 4.51851 8.30078 4.24742C8.30078 3.97629 8.53681 3.75684 8.82837 3.75684H17.8253C18.1169 3.75684 18.3529 3.97629 18.3529 4.24742C18.3529 4.51851 18.1169 4.738 17.8253 4.738Z" fill="#30458C"/>
<path d="M23.4084 9.91475H3.23462C2.94306 9.91475 2.70703 9.69527 2.70703 9.42417C2.70703 9.15305 2.94306 8.93359 3.23462 8.93359H23.4084C23.6999 8.93359 23.936 9.15305 23.936 9.42417C23.936 9.69527 23.6999 9.91475 23.4084 9.91475Z" fill="#30458C"/>
<path d="M20.6741 7.33272H5.98464C5.69306 7.33272 5.45703 7.11327 5.45703 6.84214C5.45703 6.57105 5.69306 6.35156 5.98464 6.35156H20.6602C20.9518 6.35156 21.1878 6.57105 21.1878 6.84214C21.1878 7.11327 20.9518 7.33272 20.6741 7.33272Z" fill="#30458C"/>
<path d="M26.1301 12.5095H0.527599C0.236031 12.5095 0 12.29 0 12.0189C0 11.7478 0.236031 11.5283 0.527599 11.5283H26.1301C26.4216 11.5283 26.6577 11.7478 26.6577 12.0189C26.6577 12.29 26.4216 12.5095 26.1301 12.5095Z" fill="#30458C"/>
<path d="M15.0368 22.863H11.6213C11.3298 22.863 11.0938 22.6435 11.0938 22.3724C11.0938 22.1013 11.3298 21.8818 11.6213 21.8818H15.0368C15.3284 21.8818 15.5645 22.1013 15.5645 22.3724C15.5645 22.6435 15.3284 22.863 15.0368 22.863Z" fill="#30458C"/>
<path d="M17.8253 20.2683H8.82837C8.53681 20.2683 8.30078 20.0488 8.30078 19.7777C8.30078 19.5066 8.53681 19.2871 8.82837 19.2871H17.8253C18.1169 19.2871 18.3529 19.5066 18.3529 19.7777C18.3529 20.0488 18.1169 20.2683 17.8253 20.2683Z" fill="#30458C"/>
<path d="M23.4084 15.0915H3.23462C2.94306 15.0915 2.70703 14.8721 2.70703 14.6009C2.70703 14.3298 2.94306 14.1104 3.23462 14.1104H23.4084C23.6999 14.1104 23.936 14.3298 23.936 14.6009C23.936 14.8721 23.6999 15.0915 23.4084 15.0915Z" fill="#30458C"/>
<path d="M20.6741 17.6863H5.98464C5.69306 17.6863 5.45703 17.4668 5.45703 17.1957C5.45703 16.9246 5.69306 16.7051 5.98464 16.7051H20.6602C20.9518 16.7051 21.1878 16.9246 21.1878 17.1957C21.1878 17.4668 20.9518 17.6863 20.6741 17.6863Z" fill="#30458C"/>
</svg>
